<mxfile host="65bd71144e">
    <diagram id="1j6MORv8ouZBQRCqS5iS" name="Page-1">
        <mxGraphModel dx="1080" dy="457" grid="1" gridSize="10" guides="1" tooltips="1" connect="1" arrows="1" fold="1" page="1" pageScale="1" pageWidth="850" pageHeight="1100" math="0" shadow="0">
            <root>
                <mxCell id="0"/>
                <mxCell id="1" parent="0"/>
                <mxCell id="2" value="ExtracciÃ³n en html" style="rounded=1;whiteSpace=wrap;html=1;" vertex="1" parent="1">
                    <mxGeometry x="110" y="390" width="120" height="50" as="geometry"/>
                </mxCell>
                <mxCell id="4" value="Preprocesamiento en&amp;nbsp;&lt;span style=&quot;color: rgb(0, 0, 0);&quot;&gt;Dataframe&lt;/span&gt;" style="rounded=1;whiteSpace=wrap;html=1;" vertex="1" parent="1">
                    <mxGeometry x="250" y="390" width="120" height="50" as="geometry"/>
                </mxCell>
                <mxCell id="6" value="Respaldo en base de datos" style="rounded=1;whiteSpace=wrap;html=1;" vertex="1" parent="1">
                    <mxGeometry x="380" y="390" width="120" height="50" as="geometry"/>
                </mxCell>
                <mxCell id="8" value="Autoria" style="rounded=1;whiteSpace=wrap;html=1;" vertex="1" parent="1">
                    <mxGeometry x="510" y="390" width="120" height="50" as="geometry"/>
                </mxCell>
                <mxCell id="11" value="WEB" style="text;html=1;align=center;verticalAlign=middle;whiteSpace=wrap;rounded=0;" vertex="1" parent="1">
                    <mxGeometry x="78.89" y="90" width="60" height="30" as="geometry"/>
                </mxCell>
                <mxCell id="12" value="yahoo finaces (Google)" style="text;html=1;align=center;verticalAlign=middle;whiteSpace=wrap;rounded=0;" vertex="1" parent="1">
                    <mxGeometry x="50" y="240" width="120" height="30" as="geometry"/>
                </mxCell>
                <mxCell id="13" style="edgeStyle=none;html=1;entryX=0;entryY=1;entryDx=0;entryDy=0;" edge="1" parent="1" source="14">
                    <mxGeometry relative="1" as="geometry">
                        <mxPoint x="761.0337156880064" y="204.9491753015169" as="targetPoint"/>
                    </mxGeometry>
                </mxCell>
                <mxCell id="14" value="" style="rounded=0;whiteSpace=wrap;html=1;" vertex="1" parent="1">
                    <mxGeometry x="250" y="90" width="440" height="220" as="geometry"/>
                </mxCell>
                <mxCell id="15" value="" style="shape=datastore;whiteSpace=wrap;html=1;" vertex="1" parent="1">
                    <mxGeometry x="460" y="168" width="60" height="50" as="geometry"/>
                </mxCell>
                <mxCell id="16" value="List" style="swimlane;fontStyle=0;childLayout=stackLayout;horizontal=1;startSize=26;fillColor=none;horizontalStack=0;resizeParent=1;resizeParentMax=0;resizeLast=0;collapsible=1;marginBottom=0;html=1;" vertex="1" parent="1">
                    <mxGeometry x="270" y="140" width="100" height="104" as="geometry"/>
                </mxCell>
                <mxCell id="17" value="Item 1" style="text;strokeColor=none;fillColor=none;align=left;verticalAlign=top;spacingLeft=4;spacingRight=4;overflow=hidden;rotatable=0;points=[[0,0.5],[1,0.5]];portConstraint=eastwest;whiteSpace=wrap;html=1;" vertex="1" parent="16">
                    <mxGeometry y="26" width="100" height="26" as="geometry"/>
                </mxCell>
                <mxCell id="18" value="Item 2" style="text;strokeColor=none;fillColor=none;align=left;verticalAlign=top;spacingLeft=4;spacingRight=4;overflow=hidden;rotatable=0;points=[[0,0.5],[1,0.5]];portConstraint=eastwest;whiteSpace=wrap;html=1;" vertex="1" parent="16">
                    <mxGeometry y="52" width="100" height="26" as="geometry"/>
                </mxCell>
                <mxCell id="19" value="Item 3" style="text;strokeColor=none;fillColor=none;align=left;verticalAlign=top;spacingLeft=4;spacingRight=4;overflow=hidden;rotatable=0;points=[[0,0.5],[1,0.5]];portConstraint=eastwest;whiteSpace=wrap;html=1;" vertex="1" parent="16">
                    <mxGeometry y="78" width="100" height="26" as="geometry"/>
                </mxCell>
                <mxCell id="20" value="validacion" style="text;html=1;align=center;verticalAlign=middle;whiteSpace=wrap;rounded=0;" vertex="1" parent="1">
                    <mxGeometry x="460" y="250" width="60" height="30" as="geometry"/>
                </mxCell>
                <mxCell id="21" value="monitoreo" style="text;html=1;align=center;verticalAlign=middle;whiteSpace=wrap;rounded=0;" vertex="1" parent="1">
                    <mxGeometry x="600" y="250" width="60" height="30" as="geometry"/>
                </mxCell>
                <mxCell id="27" style="edgeStyle=none;html=1;entryX=0;entryY=0.846;entryDx=0;entryDy=0;entryPerimeter=0;" edge="1" parent="1" target="17">
                    <mxGeometry relative="1" as="geometry">
                        <mxPoint x="169.99889788662983" y="188.6696816330453" as="sourcePoint"/>
                    </mxGeometry>
                </mxCell>
                <mxCell id="28" style="edgeStyle=none;html=1;exitX=1;exitY=0.5;exitDx=0;exitDy=0;entryX=0;entryY=0.7;entryDx=0;entryDy=0;" edge="1" parent="1" source="18" target="15">
                    <mxGeometry relative="1" as="geometry"/>
                </mxCell>
                <mxCell id="29" style="edgeStyle=none;html=1;entryX=-0.056;entryY=0.434;entryDx=0;entryDy=0;entryPerimeter=0;" edge="1" parent="1" source="15">
                    <mxGeometry relative="1" as="geometry">
                        <mxPoint x="600.0087999999998" y="193.02199999999993" as="targetPoint"/>
                    </mxGeometry>
                </mxCell>
                <mxCell id="31" value="Analisis" style="rounded=1;whiteSpace=wrap;html=1;" vertex="1" parent="1">
                    <mxGeometry x="637.35" y="390" width="120" height="50" as="geometry"/>
                </mxCell>
                <mxCell id="32" value="BI" style="text;html=1;align=center;verticalAlign=middle;whiteSpace=wrap;rounded=0;" vertex="1" parent="1">
                    <mxGeometry x="757.35" y="250" width="60" height="30" as="geometry"/>
                </mxCell>
                <mxCell id="25" value="exploracion" style="shape=step;perimeter=stepPerimeter;fixedSize=1;points=[];whiteSpace=wrap;html=1;" vertex="1" parent="1">
                    <mxGeometry x="580" y="323" width="100" height="37" as="geometry"/>
                </mxCell>
                <mxCell id="24" value="enriquesimiento" style="shape=step;perimeter=stepPerimeter;fixedSize=1;points=[];whiteSpace=wrap;html=1;" vertex="1" parent="1">
                    <mxGeometry x="405" y="323" width="130" height="37" as="geometry"/>
                </mxCell>
                <mxCell id="39" value="" style="rounded=1;whiteSpace=wrap;html=1;strokeWidth=2;fillWeight=4;hachureGap=8;hachureAngle=45;fillColor=#1ba1e2;sketch=1;" vertex="1" parent="1">
                    <mxGeometry x="730" y="170" width="120" height="60" as="geometry"/>
                </mxCell>
                <mxCell id="40" value="" style="rounded=0;whiteSpace=wrap;html=1;" vertex="1" parent="1">
                    <mxGeometry x="590" y="160" width="80" height="62" as="geometry"/>
                </mxCell>
                <mxCell id="41" value="" style="shape=table;startSize=0;container=1;collapsible=0;childLayout=tableLayout;fontSize=16;" vertex="1" parent="1">
                    <mxGeometry x="20" y="120" width="180" height="120" as="geometry"/>
                </mxCell>
                <mxCell id="42" value="" style="shape=tableRow;horizontal=0;startSize=0;swimlaneHead=0;swimlaneBody=0;strokeColor=inherit;top=0;left=0;bottom=0;right=0;collapsible=0;dropTarget=0;fillColor=none;points=[[0,0.5],[1,0.5]];portConstraint=eastwest;fontSize=16;" vertex="1" parent="41">
                    <mxGeometry width="180" height="40" as="geometry"/>
                </mxCell>
                <mxCell id="43" value="" style="shape=partialRectangle;html=1;whiteSpace=wrap;connectable=0;strokeColor=inherit;overflow=hidden;fillColor=none;top=0;left=0;bottom=0;right=0;pointerEvents=1;fontSize=16;" vertex="1" parent="42">
                    <mxGeometry width="60" height="40" as="geometry">
                        <mxRectangle width="60" height="40" as="alternateBounds"/>
                    </mxGeometry>
                </mxCell>
                <mxCell id="44" value="" style="shape=partialRectangle;html=1;whiteSpace=wrap;connectable=0;strokeColor=inherit;overflow=hidden;fillColor=none;top=0;left=0;bottom=0;right=0;pointerEvents=1;fontSize=16;" vertex="1" parent="42">
                    <mxGeometry x="60" width="60" height="40" as="geometry">
                        <mxRectangle width="60" height="40" as="alternateBounds"/>
                    </mxGeometry>
                </mxCell>
                <mxCell id="45" value="" style="shape=partialRectangle;html=1;whiteSpace=wrap;connectable=0;strokeColor=inherit;overflow=hidden;fillColor=none;top=0;left=0;bottom=0;right=0;pointerEvents=1;fontSize=16;" vertex="1" parent="42">
                    <mxGeometry x="120" width="60" height="40" as="geometry">
                        <mxRectangle width="60" height="40" as="alternateBounds"/>
                    </mxGeometry>
                </mxCell>
                <mxCell id="46" value="" style="shape=tableRow;horizontal=0;startSize=0;swimlaneHead=0;swimlaneBody=0;strokeColor=inherit;top=0;left=0;bottom=0;right=0;collapsible=0;dropTarget=0;fillColor=none;points=[[0,0.5],[1,0.5]];portConstraint=eastwest;fontSize=16;" vertex="1" parent="41">
                    <mxGeometry y="40" width="180" height="40" as="geometry"/>
                </mxCell>
                <mxCell id="47" value="" style="shape=partialRectangle;html=1;whiteSpace=wrap;connectable=0;strokeColor=inherit;overflow=hidden;fillColor=none;top=0;left=0;bottom=0;right=0;pointerEvents=1;fontSize=16;" vertex="1" parent="46">
                    <mxGeometry width="60" height="40" as="geometry">
                        <mxRectangle width="60" height="40" as="alternateBounds"/>
                    </mxGeometry>
                </mxCell>
                <mxCell id="48" value="" style="shape=partialRectangle;html=1;whiteSpace=wrap;connectable=0;strokeColor=inherit;overflow=hidden;fillColor=none;top=0;left=0;bottom=0;right=0;pointerEvents=1;fontSize=16;" vertex="1" parent="46">
                    <mxGeometry x="60" width="60" height="40" as="geometry">
                        <mxRectangle width="60" height="40" as="alternateBounds"/>
                    </mxGeometry>
                </mxCell>
                <mxCell id="49" value="" style="shape=partialRectangle;html=1;whiteSpace=wrap;connectable=0;strokeColor=inherit;overflow=hidden;fillColor=none;top=0;left=0;bottom=0;right=0;pointerEvents=1;fontSize=16;" vertex="1" parent="46">
                    <mxGeometry x="120" width="60" height="40" as="geometry">
                        <mxRectangle width="60" height="40" as="alternateBounds"/>
                    </mxGeometry>
                </mxCell>
                <mxCell id="50" value="" style="shape=tableRow;horizontal=0;startSize=0;swimlaneHead=0;swimlaneBody=0;strokeColor=inherit;top=0;left=0;bottom=0;right=0;collapsible=0;dropTarget=0;fillColor=none;points=[[0,0.5],[1,0.5]];portConstraint=eastwest;fontSize=16;" vertex="1" parent="41">
                    <mxGeometry y="80" width="180" height="40" as="geometry"/>
                </mxCell>
                <mxCell id="51" value="" style="shape=partialRectangle;html=1;whiteSpace=wrap;connectable=0;strokeColor=inherit;overflow=hidden;fillColor=none;top=0;left=0;bottom=0;right=0;pointerEvents=1;fontSize=16;" vertex="1" parent="50">
                    <mxGeometry width="60" height="40" as="geometry">
                        <mxRectangle width="60" height="40" as="alternateBounds"/>
                    </mxGeometry>
                </mxCell>
                <mxCell id="52" value="" style="shape=partialRectangle;html=1;whiteSpace=wrap;connectable=0;strokeColor=inherit;overflow=hidden;fillColor=none;top=0;left=0;bottom=0;right=0;pointerEvents=1;fontSize=16;" vertex="1" parent="50">
                    <mxGeometry x="60" width="60" height="40" as="geometry">
                        <mxRectangle width="60" height="40" as="alternateBounds"/>
                    </mxGeometry>
                </mxCell>
                <mxCell id="53" value="" style="shape=partialRectangle;html=1;whiteSpace=wrap;connectable=0;strokeColor=inherit;overflow=hidden;fillColor=none;top=0;left=0;bottom=0;right=0;pointerEvents=1;fontSize=16;" vertex="1" parent="50">
                    <mxGeometry x="120" width="60" height="40" as="geometry">
                        <mxRectangle width="60" height="40" as="alternateBounds"/>
                    </mxGeometry>
                </mxCell>
                <mxCell id="23" value="limpieza" style="shape=step;perimeter=stepPerimeter;fixedSize=1;points=[];whiteSpace=wrap;html=1;" vertex="1" parent="1">
                    <mxGeometry x="258.89" y="323" width="100" height="37" as="geometry"/>
                </mxCell>
            </root>
        </mxGraphModel>
    </diagram>
</mxfile>